<svg width="12" height="22" viewBox="0 0 12 22" fill="none" xmlns="http://www.w3.org/2000/svg">
<path d="M6.85714 8.55556H12L11.4286 11H6.85714V22H4.57143V11H0V8.55556H4.57143V6.26756C4.57143 4.08833 4.784 3.29756 5.18172 2.50067C5.57144 1.71332 6.17349 1.06946 6.90971 0.652667C7.65486 0.227333 8.39429 0 10.432 0C11.0286 0 11.552 0.0611112 12 0.183333V2.44444H10.432C8.91886 2.44444 8.45829 2.53978 7.98857 2.80867C7.64114 3.00667 7.38286 3.28289 7.19771 3.65444C6.94629 4.15678 6.85714 4.64933 6.85714 6.26756V8.55556Z" fill="#333333"/>
</svg>
