<svg width="224" height="130" viewBox="0 0 224 130" fill="none" xmlns="http://www.w3.org/2000/svg">
<path d="M1.6059 126H3.2929V115.92H1.6059V126ZM5.65573 126H7.36373V122.115C7.36373 121.504 7.45006 121.032 7.62273 120.701C7.80006 120.365 8.02406 120.134 8.29473 120.008C8.57006 119.877 8.85006 119.812 9.13473 119.812C9.53606 119.812 9.85573 119.901 10.0937 120.078C10.3317 120.251 10.5067 120.472 10.6187 120.743C10.7354 121.009 10.8101 121.287 10.8427 121.576C10.8801 121.865 10.8987 122.127 10.8987 122.36V126H12.6067V121.779C12.6067 121.602 12.5904 121.366 12.5577 121.072C12.5297 120.778 12.4644 120.468 12.3617 120.141C12.2591 119.814 12.1004 119.506 11.8857 119.217C11.6711 118.923 11.3794 118.685 11.0107 118.503C10.6467 118.316 10.1871 118.223 9.63173 118.223C9.08573 118.223 8.60506 118.319 8.18973 118.51C7.77906 118.697 7.43606 118.953 7.16073 119.28V118.44H5.65573V126ZM17.6324 126.21C18.6077 126.21 19.3707 125.993 19.9214 125.559C20.4767 125.125 20.7544 124.528 20.7544 123.767C20.7544 123.179 20.5677 122.717 20.1944 122.381C19.8257 122.045 19.1887 121.76 18.2834 121.527C17.6954 121.378 17.2521 121.252 16.9534 121.149C16.6594 121.046 16.4634 120.944 16.3654 120.841C16.2674 120.738 16.2184 120.615 16.2184 120.47C16.2184 120.218 16.3397 120.022 16.5824 119.882C16.8251 119.737 17.1447 119.674 17.5414 119.693C17.9521 119.716 18.2811 119.821 18.5284 120.008C18.7804 120.195 18.9297 120.449 18.9764 120.771L20.6984 120.463C20.6051 119.782 20.2714 119.24 19.6974 118.839C19.1234 118.433 18.3954 118.23 17.5134 118.23C16.6127 118.23 15.8917 118.44 15.3504 118.86C14.8091 119.28 14.5384 119.845 14.5384 120.554C14.5384 121.119 14.7274 121.564 15.1054 121.891C15.4881 122.218 16.1531 122.505 17.1004 122.752C17.6697 122.901 18.0897 123.027 18.3604 123.13C18.6357 123.228 18.8154 123.328 18.8994 123.431C18.9834 123.534 19.0254 123.671 19.0254 123.844C19.0254 124.124 18.9134 124.346 18.6894 124.509C18.4654 124.668 18.1527 124.747 17.7514 124.747C17.2894 124.747 16.9044 124.64 16.5964 124.425C16.2931 124.21 16.0994 123.916 16.0154 123.543L14.2934 123.809C14.4194 124.57 14.7741 125.16 15.3574 125.58C15.9407 126 16.6991 126.21 17.6324 126.21ZM26.9986 126V124.586C26.5273 124.656 26.1073 124.675 25.7386 124.642C25.37 124.609 25.1016 124.453 24.9336 124.173C24.845 124.028 24.796 123.842 24.7866 123.613C24.782 123.38 24.7796 123.114 24.7796 122.815V119.763H26.9986V118.44H24.7796V116.34H23.0996V118.44H21.7276V119.763H23.0996V122.913C23.0996 123.347 23.1043 123.734 23.1136 124.075C23.123 124.411 23.214 124.742 23.3866 125.069C23.5826 125.428 23.8696 125.692 24.2476 125.86C24.6256 126.023 25.0526 126.11 25.5286 126.119C26.0093 126.133 26.4993 126.093 26.9986 126ZM31.0183 126.21C31.6203 126.21 32.1313 126.112 32.5513 125.916C32.9759 125.715 33.3493 125.405 33.6713 124.985V126H35.1483V121.359C35.1483 121.032 35.1343 120.731 35.1063 120.456C35.0783 120.176 34.9966 119.903 34.8613 119.637C34.6139 119.138 34.2336 118.778 33.7203 118.559C33.2116 118.34 32.6213 118.23 31.9493 118.23C31.0626 118.23 30.3556 118.424 29.8283 118.811C29.3009 119.198 28.9439 119.712 28.7573 120.351L30.2973 120.834C30.4233 120.447 30.6449 120.174 30.9623 120.015C31.2796 119.856 31.6086 119.777 31.9493 119.777C32.4626 119.777 32.8406 119.882 33.0833 120.092C33.3259 120.297 33.4636 120.617 33.4963 121.051C32.8336 121.149 32.2176 121.245 31.6483 121.338C31.0836 121.427 30.6029 121.536 30.2063 121.667C29.6089 121.872 29.1726 122.164 28.8973 122.542C28.6219 122.915 28.4843 123.377 28.4843 123.928C28.4843 124.343 28.5799 124.724 28.7713 125.069C28.9673 125.414 29.2543 125.692 29.6323 125.902C30.0103 126.107 30.4723 126.21 31.0183 126.21ZM31.3543 124.866C30.9576 124.866 30.6543 124.775 30.4443 124.593C30.2389 124.411 30.1363 124.182 30.1363 123.907C30.1363 123.66 30.2156 123.459 30.3743 123.305C30.5376 123.151 30.7639 123.02 31.0533 122.913C31.3193 122.824 31.6389 122.747 32.0123 122.682C32.3856 122.612 32.8733 122.53 33.4753 122.437C33.4706 122.614 33.4589 122.813 33.4403 123.032C33.4216 123.247 33.3773 123.44 33.3073 123.613C33.2513 123.786 33.1416 123.97 32.9783 124.166C32.8196 124.362 32.6049 124.528 32.3343 124.663C32.0636 124.798 31.7369 124.866 31.3543 124.866ZM37.2367 126H38.9447V122.115C38.9447 121.504 39.031 121.032 39.2037 120.701C39.381 120.365 39.605 120.134 39.8757 120.008C40.151 119.877 40.431 119.812 40.7157 119.812C41.117 119.812 41.4367 119.901 41.6747 120.078C41.9127 120.251 42.0877 120.472 42.1997 120.743C42.3163 121.009 42.391 121.287 42.4237 121.576C42.461 121.865 42.4797 122.127 42.4797 122.36V126H44.1877V121.779C44.1877 121.602 44.1713 121.366 44.1387 121.072C44.1107 120.778 44.0453 120.468 43.9427 120.141C43.84 119.814 43.6813 119.506 43.4667 119.217C43.252 118.923 42.9603 118.685 42.5917 118.503C42.2277 118.316 41.768 118.223 41.2127 118.223C40.6667 118.223 40.186 118.319 39.7707 118.51C39.36 118.697 39.017 118.953 38.7417 119.28V118.44H37.2367V126ZM50.7253 126V124.586C50.254 124.656 49.834 124.675 49.4653 124.642C49.0967 124.609 48.8283 124.453 48.6603 124.173C48.5717 124.028 48.5227 123.842 48.5133 123.613C48.5087 123.38 48.5063 123.114 48.5063 122.815V119.763H50.7253V118.44H48.5063V116.34H46.8263V118.44H45.4543V119.763H46.8263V122.913C46.8263 123.347 46.831 123.734 46.8403 124.075C46.8497 124.411 46.9407 124.742 47.1133 125.069C47.3093 125.428 47.5963 125.692 47.9743 125.86C48.3523 126.023 48.7793 126.11 49.2553 126.119C49.736 126.133 50.226 126.093 50.7253 126ZM57.9817 126H60.4527L63.6307 115.92H61.8947L59.1997 124.362L56.5397 115.92H54.8037L57.9817 126ZM67.5655 126.21C68.2935 126.21 68.9585 126.023 69.5605 125.65C70.1671 125.272 70.6151 124.74 70.9045 124.054L69.2385 123.55C68.9025 124.269 68.3121 124.628 67.4675 124.628C66.8935 124.628 66.4408 124.462 66.1095 124.131C65.7781 123.795 65.5798 123.314 65.5145 122.689H70.9885C71.0538 121.779 70.9535 120.99 70.6875 120.323C70.4215 119.656 70.0131 119.14 69.4625 118.776C68.9165 118.412 68.2515 118.23 67.4675 118.23C66.7255 118.23 66.0721 118.398 65.5075 118.734C64.9428 119.065 64.5018 119.537 64.1845 120.148C63.8671 120.759 63.7085 121.478 63.7085 122.304C63.7085 123.069 63.8695 123.746 64.1915 124.334C64.5181 124.922 64.9708 125.382 65.5495 125.713C66.1281 126.044 66.8001 126.21 67.5655 126.21ZM67.5375 119.707C68.0601 119.707 68.4615 119.845 68.7415 120.12C69.0261 120.391 69.2058 120.822 69.2805 121.415H65.5565C65.7571 120.276 66.4175 119.707 67.5375 119.707ZM75.8614 126.21C76.2534 126.21 76.6104 126.156 76.9324 126.049C77.259 125.946 77.5507 125.802 77.8074 125.615V126.336C77.8167 126.873 77.651 127.279 77.3104 127.554C76.9744 127.829 76.5427 127.967 76.0154 127.967C75.7167 127.967 75.4344 127.899 75.1684 127.764C74.9024 127.629 74.6994 127.426 74.5594 127.155L73.0054 127.925C73.2994 128.438 73.7147 128.84 74.2514 129.129C74.7927 129.423 75.3784 129.57 76.0084 129.57C76.8624 129.57 77.595 129.395 78.2064 129.045C78.8224 128.7 79.2167 128.161 79.3894 127.428C79.4267 127.26 79.4524 127.09 79.4664 126.917C79.485 126.744 79.4944 126.56 79.4944 126.364V118.44H78.0174V118.986C77.7514 118.743 77.4434 118.557 77.0934 118.426C76.7434 118.295 76.3537 118.23 75.9244 118.23C75.2104 118.23 74.5897 118.403 74.0624 118.748C73.5397 119.093 73.1337 119.567 72.8444 120.169C72.555 120.771 72.4104 121.455 72.4104 122.22C72.4104 122.976 72.5527 123.655 72.8374 124.257C73.122 124.859 73.5234 125.335 74.0414 125.685C74.5594 126.035 75.166 126.21 75.8614 126.21ZM76.1204 124.698C75.6817 124.698 75.32 124.588 75.0354 124.369C74.7507 124.145 74.5384 123.846 74.3984 123.473C74.263 123.1 74.1954 122.682 74.1954 122.22C74.1954 121.763 74.2654 121.347 74.4054 120.974C74.55 120.596 74.767 120.297 75.0564 120.078C75.3504 119.854 75.7237 119.742 76.1764 119.742C76.8204 119.742 77.287 119.971 77.5764 120.428C77.8704 120.885 78.0174 121.483 78.0174 122.22C78.0174 122.953 77.8704 123.55 77.5764 124.012C77.287 124.469 76.8017 124.698 76.1204 124.698ZM83.8513 126.21C84.4533 126.21 84.9643 126.112 85.3843 125.916C85.809 125.715 86.1823 125.405 86.5043 124.985V126H87.9813V121.359C87.9813 121.032 87.9673 120.731 87.9393 120.456C87.9113 120.176 87.8296 119.903 87.6943 119.637C87.447 119.138 87.0666 118.778 86.5533 118.559C86.0446 118.34 85.4543 118.23 84.7823 118.23C83.8956 118.23 83.1886 118.424 82.6613 118.811C82.134 119.198 81.777 119.712 81.5903 120.351L83.1303 120.834C83.2563 120.447 83.478 120.174 83.7953 120.015C84.1126 119.856 84.4416 119.777 84.7823 119.777C85.2956 119.777 85.6736 119.882 85.9163 120.092C86.159 120.297 86.2966 120.617 86.3293 121.051C85.6666 121.149 85.0506 121.245 84.4813 121.338C83.9166 121.427 83.436 121.536 83.0393 121.667C82.442 121.872 82.0056 122.164 81.7303 122.542C81.455 122.915 81.3173 123.377 81.3173 123.928C81.3173 124.343 81.413 124.724 81.6043 125.069C81.8003 125.414 82.0873 125.692 82.4653 125.902C82.8433 126.107 83.3053 126.21 83.8513 126.21ZM84.1873 124.866C83.7906 124.866 83.4873 124.775 83.2773 124.593C83.072 124.411 82.9693 124.182 82.9693 123.907C82.9693 123.66 83.0486 123.459 83.2073 123.305C83.3706 123.151 83.597 123.02 83.8863 122.913C84.1523 122.824 84.472 122.747 84.8453 122.682C85.2186 122.612 85.7063 122.53 86.3083 122.437C86.3036 122.614 86.292 122.813 86.2733 123.032C86.2546 123.247 86.2103 123.44 86.1403 123.613C86.0843 123.786 85.9746 123.97 85.8113 124.166C85.6526 124.362 85.438 124.528 85.1673 124.663C84.8966 124.798 84.57 124.866 84.1873 124.866ZM90.0697 126H91.7777V122.115C91.7777 121.504 91.864 121.032 92.0367 120.701C92.214 120.365 92.438 120.134 92.7087 120.008C92.984 119.877 93.264 119.812 93.5487 119.812C93.95 119.812 94.2697 119.901 94.5077 120.078C94.7457 120.251 94.9207 120.472 95.0327 120.743C95.1494 121.009 95.224 121.287 95.2567 121.576C95.294 121.865 95.3127 122.127 95.3127 122.36V126H97.0207V121.779C97.0207 121.602 97.0044 121.366 96.9717 121.072C96.9437 120.778 96.8784 120.468 96.7757 120.141C96.673 119.814 96.5144 119.506 96.2997 119.217C96.085 118.923 95.7934 118.685 95.4247 118.503C95.0607 118.316 94.601 118.223 94.0457 118.223C93.4997 118.223 93.019 118.319 92.6037 118.51C92.193 118.697 91.85 118.953 91.5747 119.28V118.44H90.0697V126ZM102.21 126H103.897V121.8H107.439V120.12H103.897V117.607H108.279V115.92H102.21V126ZM109.818 126H111.512V122.157C111.512 121.718 111.592 121.329 111.75 120.988C111.914 120.647 112.168 120.384 112.513 120.197C112.747 120.062 113.008 119.982 113.297 119.959C113.587 119.931 113.846 119.95 114.074 120.015V118.44C113.734 118.389 113.384 118.396 113.024 118.461C112.665 118.522 112.345 118.648 112.065 118.839C111.907 118.937 111.764 119.056 111.638 119.196C111.512 119.331 111.403 119.483 111.309 119.651V118.44H109.818V126ZM115.83 117.292H117.517V115.745H115.83V117.292ZM115.83 126H117.517V118.44H115.83V126ZM123.331 126.21C124.059 126.21 124.724 126.023 125.326 125.65C125.933 125.272 126.381 124.74 126.67 124.054L125.004 123.55C124.668 124.269 124.078 124.628 123.233 124.628C122.659 124.628 122.206 124.462 121.875 124.131C121.544 123.795 121.345 123.314 121.28 122.689H126.754C126.819 121.779 126.719 120.99 126.453 120.323C126.187 119.656 125.779 119.14 125.228 118.776C124.682 118.412 124.017 118.23 123.233 118.23C122.491 118.23 121.838 118.398 121.273 118.734C120.708 119.065 120.267 119.537 119.95 120.148C119.633 120.759 119.474 121.478 119.474 122.304C119.474 123.069 119.635 123.746 119.957 124.334C120.284 124.922 120.736 125.382 121.315 125.713C121.894 126.044 122.566 126.21 123.331 126.21ZM123.303 119.707C123.826 119.707 124.227 119.845 124.507 120.12C124.792 120.391 124.971 120.822 125.046 121.415H121.322C121.523 120.276 122.183 119.707 123.303 119.707ZM128.377 126H130.085V122.115C130.085 121.504 130.171 121.032 130.344 120.701C130.521 120.365 130.745 120.134 131.016 120.008C131.291 119.877 131.571 119.812 131.856 119.812C132.257 119.812 132.577 119.901 132.815 120.078C133.053 120.251 133.228 120.472 133.34 120.743C133.456 121.009 133.531 121.287 133.564 121.576C133.601 121.865 133.62 122.127 133.62 122.36V126H135.328V121.779C135.328 121.602 135.311 121.366 135.279 121.072C135.251 120.778 135.185 120.468 135.083 120.141C134.98 119.814 134.821 119.506 134.607 119.217C134.392 118.923 134.1 118.685 133.732 118.503C133.368 118.316 132.908 118.223 132.353 118.223C131.807 118.223 131.326 118.319 130.911 118.51C130.5 118.697 130.157 118.953 129.882 119.28V118.44H128.377V126ZM140.342 126.21C140.79 126.21 141.194 126.142 141.553 126.007C141.913 125.872 142.228 125.683 142.498 125.44V126H143.989V115.92H142.288V118.811C142.036 118.624 141.754 118.482 141.441 118.384C141.129 118.281 140.783 118.23 140.405 118.23C139.691 118.23 139.071 118.403 138.543 118.748C138.021 119.093 137.615 119.567 137.325 120.169C137.036 120.771 136.891 121.455 136.891 122.22C136.891 122.976 137.034 123.655 137.318 124.257C137.603 124.859 138.004 125.335 138.522 125.685C139.04 126.035 139.647 126.21 140.342 126.21ZM140.601 124.698C140.163 124.698 139.801 124.588 139.516 124.369C139.232 124.145 139.019 123.846 138.879 123.473C138.744 123.1 138.676 122.682 138.676 122.22C138.676 121.763 138.746 121.347 138.886 120.974C139.031 120.596 139.248 120.297 139.537 120.078C139.831 119.854 140.205 119.742 140.657 119.742C141.301 119.742 141.768 119.971 142.057 120.428C142.351 120.885 142.498 121.483 142.498 122.22C142.498 122.953 142.351 123.55 142.057 124.012C141.768 124.469 141.283 124.698 140.601 124.698ZM146.372 126H148.059V115.71H146.372V126ZM151.43 129.36H153.012L157.226 118.44H155.539L153.488 123.851L151.374 118.44H149.617L152.676 125.944L151.43 129.36ZM161.632 126H163.214V119.539L166.301 126H166.973L170.067 119.539V126H171.642V115.92H170.123L166.637 123.06L163.151 115.92H161.632V126ZM176.724 126.217C177.27 126.217 177.748 126.124 178.159 125.937C178.574 125.746 178.92 125.487 179.195 125.16V126H180.686V118.44H178.992V122.325C178.992 122.936 178.903 123.41 178.726 123.746C178.553 124.077 178.332 124.308 178.061 124.439C177.79 124.565 177.51 124.628 177.221 124.628C176.82 124.628 176.5 124.542 176.262 124.369C176.024 124.192 175.847 123.97 175.73 123.704C175.618 123.433 175.543 123.153 175.506 122.864C175.473 122.575 175.457 122.313 175.457 122.08V118.44H173.749V122.661C173.749 122.838 173.763 123.074 173.791 123.368C173.824 123.662 173.891 123.972 173.994 124.299C174.097 124.626 174.255 124.936 174.47 125.23C174.685 125.519 174.974 125.757 175.338 125.944C175.707 126.126 176.169 126.217 176.724 126.217ZM185.964 126.21C186.356 126.21 186.713 126.156 187.035 126.049C187.361 125.946 187.653 125.802 187.91 125.615V126.336C187.919 126.873 187.753 127.279 187.413 127.554C187.077 127.829 186.645 127.967 186.118 127.967C185.819 127.967 185.537 127.899 185.271 127.764C185.005 127.629 184.802 127.426 184.662 127.155L183.108 127.925C183.402 128.438 183.817 128.84 184.354 129.129C184.895 129.423 185.481 129.57 186.111 129.57C186.965 129.57 187.697 129.395 188.309 129.045C188.925 128.7 189.319 128.161 189.492 127.428C189.529 127.26 189.555 127.09 189.569 126.917C189.587 126.744 189.597 126.56 189.597 126.364V118.44H188.12V118.986C187.854 118.743 187.546 118.557 187.196 118.426C186.846 118.295 186.456 118.23 186.027 118.23C185.313 118.23 184.692 118.403 184.165 118.748C183.642 119.093 183.236 119.567 182.947 120.169C182.657 120.771 182.513 121.455 182.513 122.22C182.513 122.976 182.655 123.655 182.94 124.257C183.224 124.859 183.626 125.335 184.144 125.685C184.662 126.035 185.268 126.21 185.964 126.21ZM186.223 124.698C185.784 124.698 185.422 124.588 185.138 124.369C184.853 124.145 184.641 123.846 184.501 123.473C184.365 123.1 184.298 122.682 184.298 122.22C184.298 121.763 184.368 121.347 184.508 120.974C184.652 120.596 184.869 120.297 185.159 120.078C185.453 119.854 185.826 119.742 186.279 119.742C186.923 119.742 187.389 119.971 187.679 120.428C187.973 120.885 188.12 121.483 188.12 122.22C188.12 122.953 187.973 123.55 187.679 124.012C187.389 124.469 186.904 124.698 186.223 124.698ZM195.123 126.21C195.967 126.21 196.681 126.005 197.265 125.594C197.848 125.179 198.256 124.586 198.49 123.816L196.768 123.431C196.637 123.818 196.441 124.115 196.18 124.32C195.923 124.525 195.571 124.628 195.123 124.628C194.488 124.628 194.01 124.406 193.688 123.963C193.37 123.52 193.209 122.939 193.205 122.22C193.209 121.525 193.363 120.951 193.667 120.498C193.975 120.041 194.46 119.812 195.123 119.812C195.51 119.812 195.855 119.926 196.159 120.155C196.462 120.379 196.679 120.694 196.81 121.1L198.49 120.645C198.312 119.898 197.925 119.31 197.328 118.881C196.73 118.447 196.002 118.23 195.144 118.23C194.378 118.23 193.718 118.403 193.163 118.748C192.607 119.089 192.178 119.56 191.875 120.162C191.576 120.759 191.424 121.445 191.42 122.22C191.424 122.981 191.571 123.662 191.861 124.264C192.155 124.866 192.577 125.342 193.128 125.692C193.678 126.037 194.343 126.21 195.123 126.21ZM202.163 126.21C202.765 126.21 203.276 126.112 203.696 125.916C204.121 125.715 204.494 125.405 204.816 124.985V126H206.293V121.359C206.293 121.032 206.279 120.731 206.251 120.456C206.223 120.176 206.142 119.903 206.006 119.637C205.759 119.138 205.379 118.778 204.865 118.559C204.357 118.34 203.766 118.23 203.094 118.23C202.208 118.23 201.501 118.424 200.973 118.811C200.446 119.198 200.089 119.712 199.902 120.351L201.442 120.834C201.568 120.447 201.79 120.174 202.107 120.015C202.425 119.856 202.754 119.777 203.094 119.777C203.608 119.777 203.986 119.882 204.228 120.092C204.471 120.297 204.609 120.617 204.641 121.051C203.979 121.149 203.363 121.245 202.793 121.338C202.229 121.427 201.748 121.536 201.351 121.667C200.754 121.872 200.318 122.164 200.042 122.542C199.767 122.915 199.629 123.377 199.629 123.928C199.629 124.343 199.725 124.724 199.916 125.069C200.112 125.414 200.399 125.692 200.777 125.902C201.155 126.107 201.617 126.21 202.163 126.21ZM202.499 124.866C202.103 124.866 201.799 124.775 201.589 124.593C201.384 124.411 201.281 124.182 201.281 123.907C201.281 123.66 201.361 123.459 201.519 123.305C201.683 123.151 201.909 123.02 202.198 122.913C202.464 122.824 202.784 122.747 203.157 122.682C203.531 122.612 204.018 122.53 204.62 122.437C204.616 122.614 204.604 122.813 204.585 123.032C204.567 123.247 204.522 123.44 204.452 123.613C204.396 123.786 204.287 123.97 204.123 124.166C203.965 124.362 203.75 124.528 203.479 124.663C203.209 124.798 202.882 124.866 202.499 124.866ZM208.382 126H210.104V122.36L212.995 126H215.228L212.043 122.22L214.976 118.44H212.869L210.104 122.08V115.92H208.396L208.382 126ZM219.509 126.21C220.237 126.21 220.902 126.023 221.504 125.65C222.111 125.272 222.559 124.74 222.848 124.054L221.182 123.55C220.846 124.269 220.256 124.628 219.411 124.628C218.837 124.628 218.385 124.462 218.053 124.131C217.722 123.795 217.524 123.314 217.458 122.689H222.932C222.998 121.779 222.897 120.99 222.631 120.323C222.365 119.656 221.957 119.14 221.406 118.776C220.86 118.412 220.195 118.23 219.411 118.23C218.669 118.23 218.016 118.398 217.451 118.734C216.887 119.065 216.446 119.537 216.128 120.148C215.811 120.759 215.652 121.478 215.652 122.304C215.652 123.069 215.813 123.746 216.135 124.334C216.462 124.922 216.915 125.382 217.493 125.713C218.072 126.044 218.744 126.21 219.509 126.21ZM219.481 119.707C220.004 119.707 220.405 119.845 220.685 120.12C220.97 120.391 221.15 120.822 221.224 121.415H217.5C217.701 120.276 218.361 119.707 219.481 119.707Z" fill="#333333"/>
<path d="M87.6528 103.344C79.7808 103.344 73.7968 101.232 69.7008 97.008C65.6688 92.72 63.6528 86.704 63.6528 78.96V47.952H76.0368V78.864C76.0368 82.64 76.6448 85.488 77.8608 87.408C79.1408 89.328 80.6768 90.64 82.4688 91.344C84.2608 91.984 85.9888 92.304 87.6528 92.304C89.5728 92.304 91.4288 91.984 93.2208 91.344C95.0128 90.64 96.4848 89.328 97.6368 87.408C98.7888 85.488 99.3648 82.64 99.3648 78.864V47.952H111.749V78.96C111.749 86.832 109.733 92.88 105.701 97.104C101.733 101.264 95.7168 103.344 87.6528 103.344ZM121.106 102V47.952H132.434V102H121.106ZM143.66 102.096V70.416H138.572V62.448H143.66V56.976C143.66 52.88 144.62 50 146.54 48.336C148.46 46.672 151.148 45.84 154.604 45.84H164.396V54.864H155.18V62.448H164.204V70.416H155.18V102.096H143.66Z" fill="#F65219"/>
</svg>
