<svg width="224" height="112" viewBox="0 0 224 112" fill="none" xmlns="http://www.w3.org/2000/svg">
<path d="M1.6059 108H3.2929V97.92H1.6059V108ZM5.65573 108H7.36373V104.115C7.36373 103.504 7.45006 103.032 7.62273 102.701C7.80006 102.365 8.02406 102.134 8.29473 102.008C8.57006 101.877 8.85006 101.812 9.13473 101.812C9.53606 101.812 9.85573 101.901 10.0937 102.078C10.3317 102.251 10.5067 102.472 10.6187 102.743C10.7354 103.009 10.8101 103.287 10.8427 103.576C10.8801 103.865 10.8987 104.127 10.8987 104.36V108H12.6067V103.779C12.6067 103.602 12.5904 103.366 12.5577 103.072C12.5297 102.778 12.4644 102.468 12.3617 102.141C12.2591 101.814 12.1004 101.506 11.8857 101.217C11.6711 100.923 11.3794 100.685 11.0107 100.503C10.6467 100.316 10.1871 100.223 9.63173 100.223C9.08573 100.223 8.60506 100.319 8.18973 100.51C7.77906 100.697 7.43606 100.953 7.16073 101.28V100.44H5.65573V108ZM17.6324 108.21C18.6077 108.21 19.3707 107.993 19.9214 107.559C20.4767 107.125 20.7544 106.528 20.7544 105.767C20.7544 105.179 20.5677 104.717 20.1944 104.381C19.8257 104.045 19.1887 103.76 18.2834 103.527C17.6954 103.378 17.2521 103.252 16.9534 103.149C16.6594 103.046 16.4634 102.944 16.3654 102.841C16.2674 102.738 16.2184 102.615 16.2184 102.47C16.2184 102.218 16.3397 102.022 16.5824 101.882C16.8251 101.737 17.1447 101.674 17.5414 101.693C17.9521 101.716 18.2811 101.821 18.5284 102.008C18.7804 102.195 18.9297 102.449 18.9764 102.771L20.6984 102.463C20.6051 101.782 20.2714 101.24 19.6974 100.839C19.1234 100.433 18.3954 100.23 17.5134 100.23C16.6127 100.23 15.8917 100.44 15.3504 100.86C14.8091 101.28 14.5384 101.845 14.5384 102.554C14.5384 103.119 14.7274 103.564 15.1054 103.891C15.4881 104.218 16.1531 104.505 17.1004 104.752C17.6697 104.901 18.0897 105.027 18.3604 105.13C18.6357 105.228 18.8154 105.328 18.8994 105.431C18.9834 105.534 19.0254 105.671 19.0254 105.844C19.0254 106.124 18.9134 106.346 18.6894 106.509C18.4654 106.668 18.1527 106.747 17.7514 106.747C17.2894 106.747 16.9044 106.64 16.5964 106.425C16.2931 106.21 16.0994 105.916 16.0154 105.543L14.2934 105.809C14.4194 106.57 14.7741 107.16 15.3574 107.58C15.9407 108 16.6991 108.21 17.6324 108.21ZM26.9986 108V106.586C26.5273 106.656 26.1073 106.675 25.7386 106.642C25.37 106.609 25.1016 106.453 24.9336 106.173C24.845 106.028 24.796 105.842 24.7866 105.613C24.782 105.38 24.7796 105.114 24.7796 104.815V101.763H26.9986V100.44H24.7796V98.34H23.0996V100.44H21.7276V101.763H23.0996V104.913C23.0996 105.347 23.1043 105.734 23.1136 106.075C23.123 106.411 23.214 106.742 23.3866 107.069C23.5826 107.428 23.8696 107.692 24.2476 107.86C24.6256 108.023 25.0526 108.11 25.5286 108.119C26.0093 108.133 26.4993 108.093 26.9986 108ZM31.0183 108.21C31.6203 108.21 32.1313 108.112 32.5513 107.916C32.9759 107.715 33.3493 107.405 33.6713 106.985V108H35.1483V103.359C35.1483 103.032 35.1343 102.731 35.1063 102.456C35.0783 102.176 34.9966 101.903 34.8613 101.637C34.6139 101.138 34.2336 100.778 33.7203 100.559C33.2116 100.34 32.6213 100.23 31.9493 100.23C31.0626 100.23 30.3556 100.424 29.8283 100.811C29.3009 101.198 28.9439 101.712 28.7573 102.351L30.2973 102.834C30.4233 102.447 30.6449 102.174 30.9623 102.015C31.2796 101.856 31.6086 101.777 31.9493 101.777C32.4626 101.777 32.8406 101.882 33.0833 102.092C33.3259 102.297 33.4636 102.617 33.4963 103.051C32.8336 103.149 32.2176 103.245 31.6483 103.338C31.0836 103.427 30.6029 103.536 30.2063 103.667C29.6089 103.872 29.1726 104.164 28.8973 104.542C28.6219 104.915 28.4843 105.377 28.4843 105.928C28.4843 106.343 28.5799 106.724 28.7713 107.069C28.9673 107.414 29.2543 107.692 29.6323 107.902C30.0103 108.107 30.4723 108.21 31.0183 108.21ZM31.3543 106.866C30.9576 106.866 30.6543 106.775 30.4443 106.593C30.2389 106.411 30.1363 106.182 30.1363 105.907C30.1363 105.66 30.2156 105.459 30.3743 105.305C30.5376 105.151 30.7639 105.02 31.0533 104.913C31.3193 104.824 31.6389 104.747 32.0123 104.682C32.3856 104.612 32.8733 104.53 33.4753 104.437C33.4706 104.614 33.4589 104.813 33.4403 105.032C33.4216 105.247 33.3773 105.44 33.3073 105.613C33.2513 105.786 33.1416 105.97 32.9783 106.166C32.8196 106.362 32.6049 106.528 32.3343 106.663C32.0636 106.798 31.7369 106.866 31.3543 106.866ZM37.2367 108H38.9447V104.115C38.9447 103.504 39.031 103.032 39.2037 102.701C39.381 102.365 39.605 102.134 39.8757 102.008C40.151 101.877 40.431 101.812 40.7157 101.812C41.117 101.812 41.4367 101.901 41.6747 102.078C41.9127 102.251 42.0877 102.472 42.1997 102.743C42.3163 103.009 42.391 103.287 42.4237 103.576C42.461 103.865 42.4797 104.127 42.4797 104.36V108H44.1877V103.779C44.1877 103.602 44.1713 103.366 44.1387 103.072C44.1107 102.778 44.0453 102.468 43.9427 102.141C43.84 101.814 43.6813 101.506 43.4667 101.217C43.252 100.923 42.9603 100.685 42.5917 100.503C42.2277 100.316 41.768 100.223 41.2127 100.223C40.6667 100.223 40.186 100.319 39.7707 100.51C39.36 100.697 39.017 100.953 38.7417 101.28V100.44H37.2367V108ZM50.7253 108V106.586C50.254 106.656 49.834 106.675 49.4653 106.642C49.0967 106.609 48.8283 106.453 48.6603 106.173C48.5717 106.028 48.5227 105.842 48.5133 105.613C48.5087 105.38 48.5063 105.114 48.5063 104.815V101.763H50.7253V100.44H48.5063V98.34H46.8263V100.44H45.4543V101.763H46.8263V104.913C46.8263 105.347 46.831 105.734 46.8403 106.075C46.8497 106.411 46.9407 106.742 47.1133 107.069C47.3093 107.428 47.5963 107.692 47.9743 107.86C48.3523 108.023 48.7793 108.11 49.2553 108.119C49.736 108.133 50.226 108.093 50.7253 108ZM57.9817 108H60.4527L63.6307 97.92H61.8947L59.1997 106.362L56.5397 97.92H54.8037L57.9817 108ZM67.5655 108.21C68.2935 108.21 68.9585 108.023 69.5605 107.65C70.1671 107.272 70.6151 106.74 70.9045 106.054L69.2385 105.55C68.9025 106.269 68.3121 106.628 67.4675 106.628C66.8935 106.628 66.4408 106.462 66.1095 106.131C65.7781 105.795 65.5798 105.314 65.5145 104.689H70.9885C71.0538 103.779 70.9535 102.99 70.6875 102.323C70.4215 101.656 70.0131 101.14 69.4625 100.776C68.9165 100.412 68.2515 100.23 67.4675 100.23C66.7255 100.23 66.0721 100.398 65.5075 100.734C64.9428 101.065 64.5018 101.537 64.1845 102.148C63.8671 102.759 63.7085 103.478 63.7085 104.304C63.7085 105.069 63.8695 105.746 64.1915 106.334C64.5181 106.922 64.9708 107.382 65.5495 107.713C66.1281 108.044 66.8001 108.21 67.5655 108.21ZM67.5375 101.707C68.0601 101.707 68.4615 101.845 68.7415 102.12C69.0261 102.391 69.2058 102.822 69.2805 103.415H65.5565C65.7571 102.276 66.4175 101.707 67.5375 101.707ZM75.8614 108.21C76.2534 108.21 76.6104 108.156 76.9324 108.049C77.259 107.946 77.5507 107.802 77.8074 107.615V108.336C77.8167 108.873 77.651 109.279 77.3104 109.554C76.9744 109.829 76.5427 109.967 76.0154 109.967C75.7167 109.967 75.4344 109.899 75.1684 109.764C74.9024 109.629 74.6994 109.426 74.5594 109.155L73.0054 109.925C73.2994 110.438 73.7147 110.84 74.2514 111.129C74.7927 111.423 75.3784 111.57 76.0084 111.57C76.8624 111.57 77.595 111.395 78.2064 111.045C78.8224 110.7 79.2167 110.161 79.3894 109.428C79.4267 109.26 79.4524 109.09 79.4664 108.917C79.485 108.744 79.4944 108.56 79.4944 108.364V100.44H78.0174V100.986C77.7514 100.743 77.4434 100.557 77.0934 100.426C76.7434 100.295 76.3537 100.23 75.9244 100.23C75.2104 100.23 74.5897 100.403 74.0624 100.748C73.5397 101.093 73.1337 101.567 72.8444 102.169C72.555 102.771 72.4104 103.455 72.4104 104.22C72.4104 104.976 72.5527 105.655 72.8374 106.257C73.122 106.859 73.5234 107.335 74.0414 107.685C74.5594 108.035 75.166 108.21 75.8614 108.21ZM76.1204 106.698C75.6817 106.698 75.32 106.588 75.0354 106.369C74.7507 106.145 74.5384 105.846 74.3984 105.473C74.263 105.1 74.1954 104.682 74.1954 104.22C74.1954 103.763 74.2654 103.347 74.4054 102.974C74.55 102.596 74.767 102.297 75.0564 102.078C75.3504 101.854 75.7237 101.742 76.1764 101.742C76.8204 101.742 77.287 101.971 77.5764 102.428C77.8704 102.885 78.0174 103.483 78.0174 104.22C78.0174 104.953 77.8704 105.55 77.5764 106.012C77.287 106.469 76.8017 106.698 76.1204 106.698ZM83.8513 108.21C84.4533 108.21 84.9643 108.112 85.3843 107.916C85.809 107.715 86.1823 107.405 86.5043 106.985V108H87.9813V103.359C87.9813 103.032 87.9673 102.731 87.9393 102.456C87.9113 102.176 87.8296 101.903 87.6943 101.637C87.447 101.138 87.0666 100.778 86.5533 100.559C86.0446 100.34 85.4543 100.23 84.7823 100.23C83.8956 100.23 83.1886 100.424 82.6613 100.811C82.134 101.198 81.777 101.712 81.5903 102.351L83.1303 102.834C83.2563 102.447 83.478 102.174 83.7953 102.015C84.1126 101.856 84.4416 101.777 84.7823 101.777C85.2956 101.777 85.6736 101.882 85.9163 102.092C86.159 102.297 86.2966 102.617 86.3293 103.051C85.6666 103.149 85.0506 103.245 84.4813 103.338C83.9166 103.427 83.436 103.536 83.0393 103.667C82.442 103.872 82.0056 104.164 81.7303 104.542C81.455 104.915 81.3173 105.377 81.3173 105.928C81.3173 106.343 81.413 106.724 81.6043 107.069C81.8003 107.414 82.0873 107.692 82.4653 107.902C82.8433 108.107 83.3053 108.21 83.8513 108.21ZM84.1873 106.866C83.7906 106.866 83.4873 106.775 83.2773 106.593C83.072 106.411 82.9693 106.182 82.9693 105.907C82.9693 105.66 83.0486 105.459 83.2073 105.305C83.3706 105.151 83.597 105.02 83.8863 104.913C84.1523 104.824 84.472 104.747 84.8453 104.682C85.2186 104.612 85.7063 104.53 86.3083 104.437C86.3036 104.614 86.292 104.813 86.2733 105.032C86.2546 105.247 86.2103 105.44 86.1403 105.613C86.0843 105.786 85.9746 105.97 85.8113 106.166C85.6526 106.362 85.438 106.528 85.1673 106.663C84.8966 106.798 84.57 106.866 84.1873 106.866ZM90.0697 108H91.7777V104.115C91.7777 103.504 91.864 103.032 92.0367 102.701C92.214 102.365 92.438 102.134 92.7087 102.008C92.984 101.877 93.264 101.812 93.5487 101.812C93.95 101.812 94.2697 101.901 94.5077 102.078C94.7457 102.251 94.9207 102.472 95.0327 102.743C95.1494 103.009 95.224 103.287 95.2567 103.576C95.294 103.865 95.3127 104.127 95.3127 104.36V108H97.0207V103.779C97.0207 103.602 97.0044 103.366 96.9717 103.072C96.9437 102.778 96.8784 102.468 96.7757 102.141C96.673 101.814 96.5144 101.506 96.2997 101.217C96.085 100.923 95.7934 100.685 95.4247 100.503C95.0607 100.316 94.601 100.223 94.0457 100.223C93.4997 100.223 93.019 100.319 92.6037 100.51C92.193 100.697 91.85 100.953 91.5747 101.28V100.44H90.0697V108ZM102.21 108H103.897V103.8H107.439V102.12H103.897V99.607H108.279V97.92H102.21V108ZM109.818 108H111.512V104.157C111.512 103.718 111.592 103.329 111.75 102.988C111.914 102.647 112.168 102.384 112.513 102.197C112.747 102.062 113.008 101.982 113.297 101.959C113.587 101.931 113.846 101.95 114.074 102.015V100.44C113.734 100.389 113.384 100.396 113.024 100.461C112.665 100.522 112.345 100.648 112.065 100.839C111.907 100.937 111.764 101.056 111.638 101.196C111.512 101.331 111.403 101.483 111.309 101.651V100.44H109.818V108ZM115.83 99.292H117.517V97.745H115.83V99.292ZM115.83 108H117.517V100.44H115.83V108ZM123.331 108.21C124.059 108.21 124.724 108.023 125.326 107.65C125.933 107.272 126.381 106.74 126.67 106.054L125.004 105.55C124.668 106.269 124.078 106.628 123.233 106.628C122.659 106.628 122.206 106.462 121.875 106.131C121.544 105.795 121.345 105.314 121.28 104.689H126.754C126.819 103.779 126.719 102.99 126.453 102.323C126.187 101.656 125.779 101.14 125.228 100.776C124.682 100.412 124.017 100.23 123.233 100.23C122.491 100.23 121.838 100.398 121.273 100.734C120.708 101.065 120.267 101.537 119.95 102.148C119.633 102.759 119.474 103.478 119.474 104.304C119.474 105.069 119.635 105.746 119.957 106.334C120.284 106.922 120.736 107.382 121.315 107.713C121.894 108.044 122.566 108.21 123.331 108.21ZM123.303 101.707C123.826 101.707 124.227 101.845 124.507 102.12C124.792 102.391 124.971 102.822 125.046 103.415H121.322C121.523 102.276 122.183 101.707 123.303 101.707ZM128.377 108H130.085V104.115C130.085 103.504 130.171 103.032 130.344 102.701C130.521 102.365 130.745 102.134 131.016 102.008C131.291 101.877 131.571 101.812 131.856 101.812C132.257 101.812 132.577 101.901 132.815 102.078C133.053 102.251 133.228 102.472 133.34 102.743C133.456 103.009 133.531 103.287 133.564 103.576C133.601 103.865 133.62 104.127 133.62 104.36V108H135.328V103.779C135.328 103.602 135.311 103.366 135.279 103.072C135.251 102.778 135.185 102.468 135.083 102.141C134.98 101.814 134.821 101.506 134.607 101.217C134.392 100.923 134.1 100.685 133.732 100.503C133.368 100.316 132.908 100.223 132.353 100.223C131.807 100.223 131.326 100.319 130.911 100.51C130.5 100.697 130.157 100.953 129.882 101.28V100.44H128.377V108ZM140.342 108.21C140.79 108.21 141.194 108.142 141.553 108.007C141.913 107.872 142.228 107.683 142.498 107.44V108H143.989V97.92H142.288V100.811C142.036 100.624 141.754 100.482 141.441 100.384C141.129 100.281 140.783 100.23 140.405 100.23C139.691 100.23 139.071 100.403 138.543 100.748C138.021 101.093 137.615 101.567 137.325 102.169C137.036 102.771 136.891 103.455 136.891 104.22C136.891 104.976 137.034 105.655 137.318 106.257C137.603 106.859 138.004 107.335 138.522 107.685C139.04 108.035 139.647 108.21 140.342 108.21ZM140.601 106.698C140.163 106.698 139.801 106.588 139.516 106.369C139.232 106.145 139.019 105.846 138.879 105.473C138.744 105.1 138.676 104.682 138.676 104.22C138.676 103.763 138.746 103.347 138.886 102.974C139.031 102.596 139.248 102.297 139.537 102.078C139.831 101.854 140.205 101.742 140.657 101.742C141.301 101.742 141.768 101.971 142.057 102.428C142.351 102.885 142.498 103.483 142.498 104.22C142.498 104.953 142.351 105.55 142.057 106.012C141.768 106.469 141.283 106.698 140.601 106.698ZM146.372 108H148.059V97.71H146.372V108ZM151.43 111.36H153.012L157.226 100.44H155.539L153.488 105.851L151.374 100.44H149.617L152.676 107.944L151.43 111.36ZM161.632 108H163.214V101.539L166.301 108H166.973L170.067 101.539V108H171.642V97.92H170.123L166.637 105.06L163.151 97.92H161.632V108ZM176.724 108.217C177.27 108.217 177.748 108.124 178.159 107.937C178.574 107.746 178.92 107.487 179.195 107.16V108H180.686V100.44H178.992V104.325C178.992 104.936 178.903 105.41 178.726 105.746C178.553 106.077 178.332 106.308 178.061 106.439C177.79 106.565 177.51 106.628 177.221 106.628C176.82 106.628 176.5 106.542 176.262 106.369C176.024 106.192 175.847 105.97 175.73 105.704C175.618 105.433 175.543 105.153 175.506 104.864C175.473 104.575 175.457 104.313 175.457 104.08V100.44H173.749V104.661C173.749 104.838 173.763 105.074 173.791 105.368C173.824 105.662 173.891 105.972 173.994 106.299C174.097 106.626 174.255 106.936 174.47 107.23C174.685 107.519 174.974 107.757 175.338 107.944C175.707 108.126 176.169 108.217 176.724 108.217ZM185.964 108.21C186.356 108.21 186.713 108.156 187.035 108.049C187.361 107.946 187.653 107.802 187.91 107.615V108.336C187.919 108.873 187.753 109.279 187.413 109.554C187.077 109.829 186.645 109.967 186.118 109.967C185.819 109.967 185.537 109.899 185.271 109.764C185.005 109.629 184.802 109.426 184.662 109.155L183.108 109.925C183.402 110.438 183.817 110.84 184.354 111.129C184.895 111.423 185.481 111.57 186.111 111.57C186.965 111.57 187.697 111.395 188.309 111.045C188.925 110.7 189.319 110.161 189.492 109.428C189.529 109.26 189.555 109.09 189.569 108.917C189.587 108.744 189.597 108.56 189.597 108.364V100.44H188.12V100.986C187.854 100.743 187.546 100.557 187.196 100.426C186.846 100.295 186.456 100.23 186.027 100.23C185.313 100.23 184.692 100.403 184.165 100.748C183.642 101.093 183.236 101.567 182.947 102.169C182.657 102.771 182.513 103.455 182.513 104.22C182.513 104.976 182.655 105.655 182.94 106.257C183.224 106.859 183.626 107.335 184.144 107.685C184.662 108.035 185.268 108.21 185.964 108.21ZM186.223 106.698C185.784 106.698 185.422 106.588 185.138 106.369C184.853 106.145 184.641 105.846 184.501 105.473C184.365 105.1 184.298 104.682 184.298 104.22C184.298 103.763 184.368 103.347 184.508 102.974C184.652 102.596 184.869 102.297 185.159 102.078C185.453 101.854 185.826 101.742 186.279 101.742C186.923 101.742 187.389 101.971 187.679 102.428C187.973 102.885 188.12 103.483 188.12 104.22C188.12 104.953 187.973 105.55 187.679 106.012C187.389 106.469 186.904 106.698 186.223 106.698ZM195.123 108.21C195.967 108.21 196.681 108.005 197.265 107.594C197.848 107.179 198.256 106.586 198.49 105.816L196.768 105.431C196.637 105.818 196.441 106.115 196.18 106.32C195.923 106.525 195.571 106.628 195.123 106.628C194.488 106.628 194.01 106.406 193.688 105.963C193.37 105.52 193.209 104.939 193.205 104.22C193.209 103.525 193.363 102.951 193.667 102.498C193.975 102.041 194.46 101.812 195.123 101.812C195.51 101.812 195.855 101.926 196.159 102.155C196.462 102.379 196.679 102.694 196.81 103.1L198.49 102.645C198.312 101.898 197.925 101.31 197.328 100.881C196.73 100.447 196.002 100.23 195.144 100.23C194.378 100.23 193.718 100.403 193.163 100.748C192.607 101.089 192.178 101.56 191.875 102.162C191.576 102.759 191.424 103.445 191.42 104.22C191.424 104.981 191.571 105.662 191.861 106.264C192.155 106.866 192.577 107.342 193.128 107.692C193.678 108.037 194.343 108.21 195.123 108.21ZM202.163 108.21C202.765 108.21 203.276 108.112 203.696 107.916C204.121 107.715 204.494 107.405 204.816 106.985V108H206.293V103.359C206.293 103.032 206.279 102.731 206.251 102.456C206.223 102.176 206.142 101.903 206.006 101.637C205.759 101.138 205.379 100.778 204.865 100.559C204.357 100.34 203.766 100.23 203.094 100.23C202.208 100.23 201.501 100.424 200.973 100.811C200.446 101.198 200.089 101.712 199.902 102.351L201.442 102.834C201.568 102.447 201.79 102.174 202.107 102.015C202.425 101.856 202.754 101.777 203.094 101.777C203.608 101.777 203.986 101.882 204.228 102.092C204.471 102.297 204.609 102.617 204.641 103.051C203.979 103.149 203.363 103.245 202.793 103.338C202.229 103.427 201.748 103.536 201.351 103.667C200.754 103.872 200.318 104.164 200.042 104.542C199.767 104.915 199.629 105.377 199.629 105.928C199.629 106.343 199.725 106.724 199.916 107.069C200.112 107.414 200.399 107.692 200.777 107.902C201.155 108.107 201.617 108.21 202.163 108.21ZM202.499 106.866C202.103 106.866 201.799 106.775 201.589 106.593C201.384 106.411 201.281 106.182 201.281 105.907C201.281 105.66 201.361 105.459 201.519 105.305C201.683 105.151 201.909 105.02 202.198 104.913C202.464 104.824 202.784 104.747 203.157 104.682C203.531 104.612 204.018 104.53 204.62 104.437C204.616 104.614 204.604 104.813 204.585 105.032C204.567 105.247 204.522 105.44 204.452 105.613C204.396 105.786 204.287 105.97 204.123 106.166C203.965 106.362 203.75 106.528 203.479 106.663C203.209 106.798 202.882 106.866 202.499 106.866ZM208.382 108H210.104V104.36L212.995 108H215.228L212.043 104.22L214.976 100.44H212.869L210.104 104.08V97.92H208.396L208.382 108ZM219.509 108.21C220.237 108.21 220.902 108.023 221.504 107.65C222.111 107.272 222.559 106.74 222.848 106.054L221.182 105.55C220.846 106.269 220.256 106.628 219.411 106.628C218.837 106.628 218.385 106.462 218.053 106.131C217.722 105.795 217.524 105.314 217.458 104.689H222.932C222.998 103.779 222.897 102.99 222.631 102.323C222.365 101.656 221.957 101.14 221.406 100.776C220.86 100.412 220.195 100.23 219.411 100.23C218.669 100.23 218.016 100.398 217.451 100.734C216.887 101.065 216.446 101.537 216.128 102.148C215.811 102.759 215.652 103.478 215.652 104.304C215.652 105.069 215.813 105.746 216.135 106.334C216.462 106.922 216.915 107.382 217.493 107.713C218.072 108.044 218.744 108.21 219.509 108.21ZM219.481 101.707C220.004 101.707 220.405 101.845 220.685 102.12C220.97 102.391 221.15 102.822 221.224 103.415H217.5C217.701 102.276 218.361 101.707 219.481 101.707Z" fill="#333333"/>
<path d="M91.7106 86.12C85.1506 86.12 80.164 84.36 76.7506 80.84C73.3906 77.2667 71.7106 72.2533 71.7106 65.8V39.96H82.0306V65.72C82.0306 68.8667 82.5373 71.24 83.5506 72.84C84.6173 74.44 85.8973 75.5333 87.3906 76.12C88.884 76.6533 90.324 76.92 91.7106 76.92C93.3106 76.92 94.8573 76.6533 96.3506 76.12C97.844 75.5333 99.0706 74.44 100.031 72.84C100.991 71.24 101.471 68.8667 101.471 65.72V39.96H111.791V65.8C111.791 72.36 110.111 77.4 106.751 80.92C103.444 84.3867 98.4306 86.12 91.7106 86.12ZM119.588 85V39.96H129.028V85H119.588ZM138.383 85.08V58.68H134.143V52.04H138.383V47.48C138.383 44.0667 139.183 41.6667 140.783 40.28C142.383 38.8933 144.623 38.2 147.503 38.2H155.663V45.72H147.983V52.04H155.503V58.68H147.983V85.08H138.383Z" fill="#F65219"/>
</svg>
